<?xml version="1.0" encoding="utf-8"?>
<!-- Generator: Adobe Illustrator 16.0.0, SVG Export Plug-In . SVG Version: 6.00 Build 0)  -->
<!DOCTYPE svg PUBLIC "-//W3C//DTD SVG 1.1//EN" "http://www.w3.org/Graphics/SVG/1.1/DTD/svg11.dtd">
<svg version="1.1" id="Layer_1" xmlns="http://www.w3.org/2000/svg" xmlns:xlink="http://www.w3.org/1999/xlink" x="0px" y="0px"
	 width="4600px" height="1504px" viewBox="0 0 4600 1504" enable-background="new 0 0 4600 1504" xml:space="preserve">
<path d="M716.592,162.32c-245.604,0-444.705,199.101-444.705,444.706c0,110.446,42.054,235.274,108.701,313.037l-0.142-0.009
	c0,0,17.544,42.216,21.865,121.473c4.374,80.173,65.597,116.616,128.277,80.173c62.681-36.441,59.441-57.649,122.051-74.538
	l0.008-0.075c20.889,3.011,42.222,4.645,63.945,4.645c245.602,0,444.706-199.101,444.706-444.705S962.194,162.32,716.592,162.32z
	 M563.631,817.528c-35.155,0-63.655-28.499-63.655-63.655c0-35.155,28.5-63.654,63.655-63.654c35.156,0,63.655,28.5,63.655,63.654
	C627.286,789.029,598.787,817.528,563.631,817.528z M867.802,628.028H560.229c-33.276,0-60.253-26.976-60.253-60.252
	s26.977-60.252,60.253-60.252h307.573c33.276,0,60.252,26.976,60.252,60.252S901.078,628.028,867.802,628.028z"/>
<g>
	<path d="M2385.73,527.445c-122.498,0-221.802,99.304-221.802,221.799c0,122.497,99.304,221.801,221.802,221.801
		c122.497,0,221.801-99.304,221.801-221.801C2607.531,626.749,2508.228,527.445,2385.73,527.445z M2385.73,867.285
		c-65.192,0-118.04-52.85-118.04-118.041c0-65.189,52.848-118.04,118.04-118.04c65.191,0,118.039,52.851,118.039,118.04
		C2503.77,814.436,2450.922,867.285,2385.73,867.285z"/>
	<path d="M1775.313,310.909c-28.652,0-51.881,23.229-51.881,51.881v198.706c-34.192-21.54-74.643-34.051-118.039-34.051
		c-122.498,0-221.802,99.304-221.802,221.799c0,122.497,99.304,221.801,221.802,221.801c111.657,0,204.006-82.52,219.484-189.895
		c1.503-4.854,2.317-10.018,2.317-15.369V362.791C1827.195,334.138,1803.967,310.909,1775.313,310.909z M1605.394,867.285
		c-65.192,0-118.039-52.85-118.039-118.041c0-65.189,52.847-118.04,118.039-118.04c65.191,0,118.039,52.851,118.039,118.04
		C1723.433,814.436,1670.585,867.285,1605.394,867.285z"/>
	<path d="M3542.229,322.939c-28.652,0-51.881,23.229-51.881,51.881v186.676c-34.192-21.54-74.643-34.051-118.039-34.051
		c-122.497,0-221.802,99.304-221.802,221.799c0,122.497,99.305,221.801,221.802,221.801c111.657,0,204.007-82.52,219.484-189.895
		c1.504-4.854,2.317-10.018,2.317-15.369V374.82C3594.11,346.167,3570.882,322.939,3542.229,322.939z M3372.309,867.285
		c-65.191,0-118.039-52.85-118.039-118.041c0-65.189,52.848-118.04,118.039-118.04s118.039,52.851,118.039,118.04
		C3490.348,814.436,3437.5,867.285,3372.309,867.285z"/>
	<path d="M2884.577,527.445c-111.657,0-204.007,82.52-219.483,189.895c-1.504,4.855-2.318,10.018-2.318,15.369v390.961
		c0,28.652,23.229,51.881,51.882,51.881s51.882-23.229,51.882-51.881V936.994c34.191,21.539,74.643,34.051,118.038,34.051
		c122.498,0,221.802-99.304,221.802-221.799C3106.379,626.749,3007.075,527.445,2884.577,527.445z M2884.577,867.285
		c-65.191,0-118.038-52.85-118.038-118.039c0-65.191,52.847-118.042,118.038-118.042s118.039,52.851,118.039,118.042
		C3002.616,814.436,2949.769,867.285,2884.577,867.285z"/>
	<path d="M2112.044,512.405h-20.103c-1.257,0-2.488,0.1-3.721,0.188c-101.055,3.909-181.792,87.019-181.792,189.031v73.562v75.806
		v68.173c0,28.652,23.228,51.881,51.881,51.881c28.653,0,51.881-23.229,51.881-51.881v-83.457v-60.521v-62.78
		c0-53.15,43.088-96.238,96.238-96.238h5.615c28.653,0,51.885-23.226,51.885-51.878S2140.697,512.405,2112.044,512.405z"/>
</g>
<circle cx="3694.24" cy="941.975" r="29.07"/>
<path d="M3830.444,752.451c0-20.553,16.661-37.217,37.217-37.217l0.009-0.091c0.312,0.015,0.602,0.091,0.916,0.091h12.015
	c10.174,0,18.421-8.247,18.421-18.421c0-10.173-8.247-18.42-18.421-18.42h-12.015c-0.975,0-1.912,0.141-2.846,0.288
	c-40.313,2.919-72.138,36.471-72.138,77.53v13.71v2.631h-13.536c-10.174,0-18.421,8.248-18.421,18.421
	c0,10.174,8.247,18.421,18.421,18.421h13.536v0.752v142.48c0,10.174,8.247,18.42,18.421,18.42s18.421-8.246,18.421-18.42V819.918
	v-10.525h40.976c10.174,0,18.421-8.247,18.421-18.421c0-10.173-8.247-18.421-18.421-18.421h-40.976v-2.631V752.451z"/>
<path d="M4103.442,851.949c-7.727-47.949-49.188-84.611-99.318-84.611c-55.629,0-100.727,45.098-100.727,100.723
	c0,55.629,45.098,100.727,100.727,100.727c24.256,0,46.503-8.582,63.89-22.867v4.446c0,10.173,8.247,18.421,18.421,18.421
	s18.421-8.248,18.421-18.421V859.01C4104.855,856.507,4104.347,854.125,4103.442,851.949z M4004.124,931.945
	c-35.285,0-63.885-28.6-63.885-63.885c0-35.278,28.6-63.881,63.885-63.881c35.284,0,63.884,28.603,63.884,63.881
	C4068.008,903.346,4039.408,931.945,4004.124,931.945z"/>
<path d="M4229.682,767.338c-44.431,0-80.449,36.02-80.449,80.449v20.273v22.535v62.029c0,10.174,8.247,18.42,18.421,18.42
	s18.42-8.246,18.42-18.42v-50.754v-33.811v-19.571c0-24.083,19.525-43.608,43.608-43.608s43.607,19.525,43.607,43.608v19.571v19.525
	v65.039c0,10.174,8.247,18.42,18.421,18.42s18.421-8.246,18.421-18.42v-67.298v-17.267v-20.273
	C4310.131,803.357,4274.112,767.338,4229.682,767.338z"/>
<path d="M4456.285,854.252c-29.954-8.477-80.79,2.416-80.79-31.775c0-21.182,22.089-32.072,45.69-32.072
	c22.089,0,32.074,4.236,45.388,20.577c2.42,3.327,5.143,6.05,9.68,6.05c6.964,0,11.502-4.238,14.832-9.68
	c1.207-2.424,1.813-4.541,1.813-6.961c0-2.726-0.908-5.445-2.418-8.17c-12.408-21.484-38.732-32.68-67.479-32.68
	c-42.36,0-78.673,22.999-78.673,62.334c0,42.965,31.775,55.067,77.765,57.186c19.061,1.512,45.693,4.237,45.693,28.443
	c0,26.021-24.812,32.68-46.601,32.68c-19.646,0-31.205-3.83-39.931-15.906c-2.764-5.046-8.059-8.508-14.218-8.508
	c-8.987,0-16.276,7.289-16.276,16.275c0,4,1.497,7.613,3.891,10.447l-0.002,0.003c0.055,0.073,0.123,0.136,0.179,0.212
	c0.265,0.303,0.496,0.634,0.784,0.916c13.568,17.425,36.539,27.422,65.573,27.422c43.875,0,77.762-22.086,77.762-63.241
	C4498.947,880.875,4483.517,861.512,4456.285,854.252z"/>
</svg>
